<?xml version="1.0" standalone="no"?>
<!DOCTYPE svg PUBLIC "-//W3C//DTD SVG 20010904//EN"
 "http://www.w3.org/TR/2001/REC-SVG-20010904/DTD/svg10.dtd">
<svg version="1.0" xmlns="http://www.w3.org/2000/svg"
 width="87.000000pt" height="87.000000pt" viewBox="0 0 87.000000 87.000000"
 preserveAspectRatio="xMidYMid meet">
<metadata>
Created by potrace 1.14, written by Peter Selinger 2001-2017
</metadata>
<g transform="translate(0.000000,87.000000) scale(0.100000,-0.100000)"
fill="#000000" stroke="none">
<path d="M242 718 c-43 -21 -41 -86 3 -106 31 -14 69 -1 85 28 9 16 21 20 60
20 44 0 52 -3 76 -35 l26 -35 140 0 c90 0 137 4 133 10 -4 6 -61 10 -138 10
l-133 0 -17 30 c-17 28 -23 30 -74 30 -48 0 -58 4 -83 30 -30 32 -42 35 -78
18z m62 -24 c20 -20 20 -33 -1 -56 -29 -32 -73 -16 -73 27 0 42 44 59 74 29z"/>
<path d="M380 540 c-24 -24 -25 -48 -4 -78 21 -31 68 -29 98 3 23 24 27 25
160 25 84 0 136 4 136 10 0 6 -55 10 -145 10 -83 0 -145 4 -145 9 0 18 -32 41
-56 41 -13 0 -33 -9 -44 -20z m82 -26 c11 -23 10 -29 -10 -44 -28 -23 -60 -15
-68 16 -13 53 56 77 78 28z"/>
<path d="M112 454 c-26 -18 -30 -65 -6 -88 24 -25 69 -20 92 9 31 39 77 34
103 -10 l21 -35 84 0 c78 0 85 2 100 25 16 24 19 25 135 25 68 0 120 4 124 10
4 6 -39 10 -122 10 l-129 0 -17 -30 c-17 -29 -21 -30 -90 -30 l-72 0 -23 40
c-20 35 -27 40 -59 40 -25 0 -42 7 -59 25 -27 29 -50 32 -82 9z m66 -16 c27
-27 7 -78 -29 -78 -23 0 -49 38 -41 59 11 31 48 41 70 19z"/>
<path d="M594 265 l-19 -35 -99 0 c-92 0 -100 2 -122 25 -30 32 -77 34 -98 3
-21 -30 -20 -54 4 -78 27 -27 64 -25 88 5 19 24 25 25 126 25 l106 0 25 40
c25 39 25 39 97 43 l73 3 -81 2 -81 2 -19 -35z m-248 -30 c16 -40 -48 -74 -76
-40 -16 19 -5 62 18 68 21 4 51 -10 58 -28z"/>
</g>
</svg>
