<?xml version="1.0" standalone="no"?>
<!DOCTYPE svg PUBLIC "-//W3C//DTD SVG 20010904//EN"
 "http://www.w3.org/TR/2001/REC-SVG-20010904/DTD/svg10.dtd">
<svg version="1.0" xmlns="http://www.w3.org/2000/svg"
 width="72.000000pt" height="72.000000pt" viewBox="0 0 72.000000 72.000000"
 preserveAspectRatio="xMidYMid meet">
<metadata>
Created by potrace 1.14, written by Peter Selinger 2001-2017
</metadata>
<g transform="translate(0.000000,72.000000) scale(0.100000,-0.100000)"
fill="#000000" stroke="none">
<path d="M57 662 c-15 -16 -17 -52 -17 -305 0 -284 0 -286 22 -301 33 -24 553
-24 586 0 22 15 22 17 22 303 0 266 -1 289 -18 304 -16 15 -52 17 -299 17
-258 0 -281 -1 -296 -18z m151 -65 c6 -6 13 -24 17 -39 5 -21 1 -33 -19 -53
-33 -33 -33 -71 -1 -101 32 -29 32 -58 0 -90 -29 -29 -58 -26 -87 8 -25 28
-22 55 7 82 14 13 25 34 25 49 0 14 -11 37 -25 51 -30 30 -32 59 -5 86 22 22
72 27 88 7z m187 -7 c11 -12 31 -20 50 -20 19 0 39 8 50 20 22 24 62 26 87 3
22 -20 23 -51 2 -81 -20 -29 -79 -31 -94 -2 -7 14 -21 20 -43 20 -20 0 -39 -8
-50 -20 -35 -41 -107 -16 -107 37 0 57 68 84 105 43z m-7 -176 c29 -20 31 -78
2 -96 -24 -15 -28 -83 -6 -91 7 -3 34 15 60 42 44 45 46 49 35 75 -11 23 -10
30 8 54 27 37 66 40 98 8 14 -14 25 -31 25 -39 0 -24 -40 -67 -64 -67 -27 0
-136 -108 -136 -135 0 -27 -29 -55 -58 -55 -60 0 -83 72 -37 112 14 12 25 32
25 46 0 14 -11 35 -25 48 -30 28 -32 67 -5 94 24 24 48 25 78 4z m-183 -199
c14 -13 25 -32 25 -43 0 -27 -37 -62 -65 -62 -28 0 -65 35 -65 62 0 23 43 68
65 68 9 0 27 -11 40 -25z m372 3 c28 -26 30 -61 3 -88 -28 -28 -64 -25 -89 7
-24 30 -20 58 11 86 27 23 47 22 75 -5z"/>
<path d="M140 565 c-15 -18 2 -45 30 -45 23 0 34 28 19 46 -15 18 -33 18 -49
-1z"/>
<path d="M141 376 c-15 -18 -4 -46 19 -46 28 0 45 27 30 45 -16 19 -34 19 -49
1z"/>
<path d="M324 566 c-10 -26 4 -48 28 -44 33 4 33 52 0 56 -13 2 -25 -3 -28
-12z"/>
<path d="M514 566 c-10 -26 4 -48 28 -44 33 4 33 52 0 56 -13 2 -25 -3 -28
-12z"/>
<path d="M337 388 c-21 -11 -22 -31 -3 -47 20 -16 46 -3 46 24 0 27 -19 37
-43 23z"/>
<path d="M523 393 c-19 -7 -16 -50 3 -57 19 -7 44 10 44 30 0 16 -30 33 -47
27z"/>
<path d="M337 199 c-20 -12 -22 -32 -3 -48 18 -15 46 -4 46 19 0 26 -22 40
-43 29z"/>
<path d="M145 194 c-18 -19 -16 -33 7 -48 12 -7 21 -6 32 3 22 18 20 38 -3 51
-15 7 -24 6 -36 -6z"/>
<path d="M523 203 c-18 -7 -16 -52 2 -59 18 -7 45 12 45 32 0 16 -30 33 -47
27z"/>
</g>
</svg>
