<svg width="14" height="14" viewBox="0 0 14 14" fill="none" xmlns="http://www.w3.org/2000/svg">
<g clip-path="url(#clip0_664_21315)">
<path d="M0.777344 7.00005C0.777344 10.4365 3.56313 13.2223 6.99957 13.2223C10.436 13.2223 13.2218 10.4365 13.2218 7.00005C13.2218 3.56361 10.436 0.777832 6.99957 0.777832C3.56313 0.777832 0.777344 3.56361 0.777344 7.00005ZM6.2704 2.96533C6.2704 2.56261 6.59685 2.23617 6.99957 2.23617C7.40228 2.23617 7.72873 2.56261 7.72873 2.96533V6.57906L9.59538 7.65677C9.94414 7.85811 10.0636 8.30407 9.86227 8.65283C9.66093 9.00159 9.21497 9.12108 8.86621 8.91973L6.63498 7.63154C6.40128 7.49659 6.27072 7.25181 6.2705 7.00005H6.2704V2.96533Z" fill="#B34D75"/>
</g>
<defs>
<clipPath id="clip0_664_21315">
<rect width="14" height="14" fill="white"/>
</clipPath>
</defs>
</svg>
